<svg class="steve-chab-s-logo" xmlns="http://www.w3.org/2000/svg" width="49.9" height="49.9" viewBox="0 0 49.9 49.9">
  <defs>
    <style>
      .no-fill {
        fill: none;
        stroke-linecap: round;
        stroke-linejoin: round;
        stroke: #000;
        stroke-width: 0.5px;
      }
      
      .fill {
        fill: #000;
      }

      @media (prefers-color-scheme: dark) {
        .no-fill {
          stroke: #fff;
        }
        
        .fill {
          fill: #fff;
        }
      }
    </style>
  </defs>
  <g class="steve-chab-abstract">
      <path class="no-fill" d="M36.8,43.3C45.6,28.4,49,31.8,49,31.8c2.7,1.7,2.6,6.8.3,10.9s-3.8,7.5-9,6.5-6.7-4.3-4.4-8.4c1.1-2.1,5.3-8.1,8.6-9.8,0,0,1.6-1.6,4.9-.3,0,0,3.1.4,1.5-2.7l1.8,4.2a5.4,5.4,0,0,0-.4,1.5c-.6,3.8-3.7,5.5-6.2,2.9s-5.6-10-20.1-4.8a41.2,41.2,0,0,1-7.3,2.1A3.7,3.7,0,0,1,14.3,31a3.9,3.9,0,0,1,.5-2.8l.9-1.4C21.8,17.7,29,13.9,34.1,11.4" transform="translate(-9.1 -5.7)"/>
      <path class="no-fill" d="M39.9,38.5A10.9,10.9,0,0,0,50,41.3" transform="translate(-9.1 -5.7)"/>
      <path class="no-fill" d="M47.9,31.7s4.6,2.2-1.3,9.9" transform="translate(-9.1 -5.7)"/>
  </g>
  <g class="steve-chab-grunge">
    <path class="fill" d="M38,46.2c-.1.2-.4.2-.4.1s-.2.2,0,.5-.4.3-.3,0l-.4.7.4-.3c.1.3-.6.4-.4.8l.5-.6h0a.9.9,0,0,1,.5-.4.1.1,0,0,1,0,.2c.6-.7-.2-.6.2-1.2A.1.1,0,0,1,38,46.2Z" transform="translate(-9.1 -5.7)"/>
    <path class="fill" d="M39.1,46.2v-.5l.5-.3c-.1-.1.1-.5-.2-.3v.2c-.2-.3.4-.7.1-.7s-.4.3-.4.7-.5.4-.7.4,0,.3-.1.4h.1l.3.3c0-.1.2-.2.2-.3v.8c.4.1.7-.5.9-.5S39.7,46,39.1,46.2Z" transform="translate(-9.1 -5.7)"/>
    <path class="fill" d="M38.1,46.1Z" transform="translate(-9.1 -5.7)"/>
    <path class="fill" d="M27.4,31H29c-.1-.1-.5-.2-.2-.3s-.6,0-.7.1h.1c-.4.2-.7-.2-.4-.4h0l-1.4.9C26.8,31.3,26.8,31,27.4,31Z" transform="translate(-9.1 -5.7)"/>
    <path class="fill" d="M33.6,13.8v0Z" transform="translate(-9.1 -5.7)"/>
    <path class="fill" d="M26,31.5l-.6.2Z" transform="translate(-9.1 -5.7)"/>
    <path class="fill" d="M28.8,27.5h0Z" transform="translate(-9.1 -5.7)"/>
    <path class="fill" d="M14.2,32.5h0Z" transform="translate(-9.1 -5.7)"/>
    <path class="fill" d="M32.9,26l-.7.2c.1-.1-.2-.1-.1-.2s-.3,0-.2.1H32c-.3.4-.1.5-.7.8s.5,0,.7-.2h.2l.5-.5Z" transform="translate(-9.1 -5.7)"/>
    <path class="fill" d="M28.4,21.7h0Z" transform="translate(-9.1 -5.7)"/>
    <path class="fill" d="M28.5,21.9h-.1S28.4,22,28.5,21.9Z" transform="translate(-9.1 -5.7)"/>
    <path class="fill" d="M26.2,31.2c0,.1-.1.2-.2.3l.4-.2Z" transform="translate(-9.1 -5.7)"/>
    <path class="fill" d="M27.1,30.5h.7l.3-.2Z" transform="translate(-9.1 -5.7)"/>
    <path class="fill" d="M15.3,32.7c-1,0-.7-.1-.2-.2s1.1-.3.8-.3a8.6,8.6,0,0,0-1.7.3c1.9-.2-1.5.6.3.5a4.4,4.4,0,0,1-2.4.3c.1-.4,1.1-.3,2-.6l-1.5.3-2.1.2a3.2,3.2,0,0,1,1.2-1c.3-.4-.1-.3-.1-.4s-1.3,1-2.2,1.5l.4-.3-.7.6c.7-.5.8-.4.7-.2h.3c.3,0,.8,0,.5.1H10c.3.2,1.7-.2,1.8,0l-.5.2a23.3,23.3,0,0,1,2.8-.5l-1.2.4a7.4,7.4,0,0,1,3.6-.1s-.2-.1.1-.1.9.1.3.3a4.3,4.3,0,0,1,1.6,0,6.1,6.1,0,0,0,1.9-.1,44.5,44.5,0,0,0,5-1.9H25c-.1-.3-.3-.2.4-.5s-.6.4-1.3.4.7-.5.1-.6-4,1.2-6.7,1.7c.4-.2-1.2-.2-1.8-.2a5.1,5.1,0,0,1,2-.4H16.4Z" transform="translate(-9.1 -5.7)"/>
    <path class="fill" d="M21,31.8h0Z" transform="translate(-9.1 -5.7)"/>
    <path class="fill" d="M17.8,32.2h0Z" transform="translate(-9.1 -5.7)"/>
    <path class="fill" d="M26.1,30.7l.3-.2h-.3Z" transform="translate(-9.1 -5.7)"/>
    <path class="fill" d="M26.2,31.1h0S26.3,31.1,26.2,31.1Z" transform="translate(-9.1 -5.7)"/>
    <path class="fill" d="M18.9,28.5Z" transform="translate(-9.1 -5.7)"/>
    <path class="fill" d="M14,32.2c.7,0,.9-.3,1.8-.3h-.2a11.5,11.5,0,0,1,2.6-.1c-.4.1.1.1-.3.4a5.8,5.8,0,0,0,1.8-.4c.2.1.9-.1,1.2,0s1.1-.5,0-.3h.2c-.3-.2-1,.2-1.5.2s.8-.2.6-.3-1.7-.2-2.5.3-.4,0-.4-.1a4.7,4.7,0,0,1-2,.1,4.7,4.7,0,0,0-1.8.3h1.6Z" transform="translate(-9.1 -5.7)"/>
    <path class="fill" d="M25.2,30.7Z" transform="translate(-9.1 -5.7)"/>
    <path class="fill" d="M31,32.7l-.2.5H28.7c-.1-.1,0-.1.1-.1H25.4c-.4,0-1.2-.1-.8-.3H24c.1-.2.5,0,.6-.2h-.3c.4-.1.1-.5,1.2-.5s-.8,0-.8.5.5-.2.5-.3.4.2.4.3.7,0,1-.2-.1.3.5.3l.4-.4h1c.9-.2-.1-.8.9-1s.2.6.7.7-.8.3-1.1.2-.7,0-.4.4a.9.9,0,0,1,.9-.1h-.1c.4,0,.6-.4,1.1-.2s.2.1.1.2S31,32.6,31,32.7Zm-.5.1h0Z" transform="translate(-9.1 -5.7)"/>
    <path class="fill" d="M42.1,43.1H42A.1.1,0,0,1,42.1,43.1Z" transform="translate(-9.1 -5.7)"/>
    <path class="fill" d="M42.3,27.7h0Z" transform="translate(-9.1 -5.7)"/>
    <path class="fill" d="M49.2,26.3h0Z" transform="translate(-9.1 -5.7)"/>
    <polygon class="fill" points="34.5 35.9 34.5 35.9 34.5 35.9 34.5 35.9"/>
    <path class="fill" d="M56.9,29.1l-.4.2Z" transform="translate(-9.1 -5.7)"/>
    <path class="fill" d="M49.1,26.3h0Z" transform="translate(-9.1 -5.7)"/>
    <path class="fill" d="M40.5,26.4h0Z" transform="translate(-9.1 -5.7)"/>
    <path class="fill" d="M40.7,27.6h0Z" transform="translate(-9.1 -5.7)"/>
    <path class="fill" d="M34.6,26.8h0Z" transform="translate(-9.1 -5.7)"/>
    <path class="fill" d="M40.1,27.4Z" transform="translate(-9.1 -5.7)"/>
    <path class="fill" d="M40.1,43.3Z" transform="translate(-9.1 -5.7)"/>
    <path class="fill" d="M40.1,44.1v.2C40.1,44.3,40.1,44.2,40.1,44.1Z" transform="translate(-9.1 -5.7)"/>
    <path class="fill" d="M51.9,33.2c-.2,0-.5.2-.5.1S51.7,33.4,51.9,33.2Z" transform="translate(-9.1 -5.7)"/>
    <path class="fill" d="M39,40.6v.2C39.1,40.7,39.1,40.6,39,40.6Z" transform="translate(-9.1 -5.7)"/>
    <path class="fill" d="M39.1,40.8h0Z" transform="translate(-9.1 -5.7)"/>
    <path class="fill" d="M47.1,32.9h0Z" transform="translate(-9.1 -5.7)"/>
    <path class="fill" d="M39.8,44.4c.1.1-.4.9.2.4s-.3.4-.4.6.1.2.2.3.1-.3.2-.4.1.3-.1.4-.1.4.3.3a4.2,4.2,0,0,0,.8-1.8c-.3.4-.5.8-.9.9v-.3c.5-.1.5-.4.8-.6l-.7.5c-.5.1-.3-.1-.1-.4Z" transform="translate(-9.1 -5.7)"/>
    <path class="fill" d="M38.6,42.3h0Z" transform="translate(-9.1 -5.7)"/>
    <path class="fill" d="M34.6,32.3h-.1A.1.1,0,0,0,34.6,32.3Z" transform="translate(-9.1 -5.7)"/>
    <path class="fill" d="M39.9,42.9Z" transform="translate(-9.1 -5.7)"/>
    <path class="fill" d="M36.5,32.3h0Z" transform="translate(-9.1 -5.7)"/>
    <path class="fill" d="M37,26.5h0C36.9,26.4,36.9,26.5,37,26.5Z" transform="translate(-9.1 -5.7)"/>
    <path class="fill" d="M36.5,32.3Z" transform="translate(-9.1 -5.7)"/>
    <path class="fill" d="M44.5,31.3h0Z" transform="translate(-9.1 -5.7)"/>
    <path class="fill" d="M43.5,30.9Z" transform="translate(-9.1 -5.7)"/>
    <path class="fill" d="M54.3,32.5l.2-.3C54.4,32.3,54.3,32.4,54.3,32.5Z" transform="translate(-9.1 -5.7)"/>
    <path class="fill" d="M36.5,32.4h0Z" transform="translate(-9.1 -5.7)"/>
    <path class="fill" d="M48,29.9h0Z" transform="translate(-9.1 -5.7)"/>
    <path class="fill" d="M48.6,30.1h-.2a3.9,3.9,0,0,0,1.4-.3c-.1.1-.4-.1,0-.3s-.4-.1-.6-.1-.4.3-.7.4.3-.3.2-.3h-.2l-.5.2h.1C49.1,29.8,47.6,30.3,48.6,30.1Z" transform="translate(-9.1 -5.7)"/>
    <path class="fill" d="M48.4,30.2h0Z" transform="translate(-9.1 -5.7)"/>
    <path class="fill" d="M50.2,30.7h0Z" transform="translate(-9.1 -5.7)"/>
    <path class="fill" d="M28.5,30.3c0,.1.5.2.5,0h-.5Z" transform="translate(-9.1 -5.7)"/>
    <path class="fill" d="M46.9,36H47A.3.3,0,0,0,46.9,36Z" transform="translate(-9.1 -5.7)"/>
    <path class="fill" d="M50.1,29.5h0Z" transform="translate(-9.1 -5.7)"/>
    <path class="fill" d="M46.4,35.7h-.3c-.1.1,0,.2-.1.4A.8.8,0,0,1,46.4,35.7Z" transform="translate(-9.1 -5.7)"/>
    <path class="fill" d="M46,36.1Z" transform="translate(-9.1 -5.7)"/>
    <path class="fill" d="M28.2,30.2h-.6l-1.4.5h-1c.3,0,.6,0,.5-.1s-.2-.5-1.1-.2H25l-1.4.5c-.1-.2.7-.3,1-.5s-.9-.3-1.7.1.7-.7.2-.7-.5.2-.6.5-.4-.1-.7.1H22c-.2-.4-1.3.2-2.1.4a17.5,17.5,0,0,1-2.3,0c.3-.2,1.1-.6.8-.6l-1.4.4c-.1-.1-.2-.1-.4,0l-.3.2,1.3-.3c-.4.3-.7.3-.7.5h-1a4.4,4.4,0,0,1,1-.8h0c.8-.6,2.4-1.2,2.1-1.5s-.1-.1-.1-.2h.2c.5-.5,1-.5,1-.9h.1c.6-.4.3-.5.5-.8s.3,0,.5,0a1,1,0,0,0,.5-1.3l.6-.4c-.1.2,0,.5.3.4s-.1-.1.2-.4l.4.3c.8-.4-.6-.2.3-.4s0-.3-.2-.4l.6-.2c-.2-.1.1-.5.3-.8s-.4.1-.4.3,0-.4.2-.6,1.1-1.3,1.4-.7a24.8,24.8,0,0,0,1.8-2.4c.3-.1.6-.4.6,0s.4-1.2,1.1-1.7-.2.3-.1.4.8-.5,1.3-1.2a.4.4,0,0,0-.1.3c0-.1.2-.4.2-.6s0,.2.1.2,1.6-2.3,2.7-3.3a.5.5,0,0,0-.1.7l.3-.3c0-.2.2-.4.3-.7h.2c.8-.4.5-1.4,1.3-2l-.4,1.4H35l-.2.6c.4-.1.3-.6.5-.4v.3c.3-.2.2-.3.4-.5s-1,1.6-1.4,2.2v-.2c-.2.2-.4.2-.6.5s.2,0,.3-.1.1.2,0,.3-.8.7-1.2.7.6.3-.2.9h-.4A3.6,3.6,0,0,1,31,19.3h-.2c-.4.3-.5.8-.9.8a18.6,18.6,0,0,1-1,2c-.4-.1.4-.8.4-1.1l-.4.4a1.2,1.2,0,0,0,.2-.8c-.4.3-.3.7-.5,1.1a.2.2,0,0,0-.3,0v.2a.1.1,0,0,0-.1.1l-.5.7c.2-.1.4.1.5-.1s0-.2.1-.3.3-.1.4,0a4.1,4.1,0,0,0-.9,1h-.2a6,6,0,0,0-.8.8v-.2l-.4.4-.5.3a1.1,1.1,0,0,0,.2.8c.2.1-.1.2-.3.3s-.5.3-.2.4l-.3-.2c-.2.1.2.2-.3.3s-.4,0-.4-.2-.2.4-.1.4.6,0,.6-.2.2.3-.1.5l-.6.2h.3c-.1.1-.2-.1-.5.1s0,.2-.2.4-.2.2.4,0-.2-.1-1.1.4.4-.4-.2-.3-.5.3-.7.4h.3c.2,0,0,.3-.3.6h.4a14.5,14.5,0,0,1,2.5-.7c-.4.1,0,.1-.8.5s.5-.1.7-.2,0,0,0-.1.5-.2.4-.1h-.1c0,.1.3-.1.5-.2s.3.1.2.2l.6-.4c-.3.3,0,.1-.1.3s.6-.4.7-.3,0,.1-.1.3.4,0,.5-.1.3-.3.4-.1-.1.2,0,.2h.5a1.4,1.4,0,0,1,1-.6c0-.3-.5-.2-.7-.1l-.2.2c-.1-.2-.2-.1-.3-.1h-.1a.4.4,0,0,1,.1-.3h.5l1.1-.2a1.1,1.1,0,0,0-.8-.3h-.9c.1.1,0,.1.1.2h-.2c.1,0,.1.4,0,.3s-.1.2-.2.2.1,0,0,.1-.2-.1-.2-.4-.2.1-.4.4h0l-.4.3c.2-.4.4-.4.4-.6s-.5.4-.8.4l.8-.4h.1c.1-.2.2-.2.3-.1s-.1,0-.1.3,0-.2.2-.4H28c.1.1.7-.8.5-.6s-.1.3-.1.4a.1.1,0,0,0,.1-.1v-.3c0-.1-.1,0-.1.2a.1.1,0,0,0,.1.1h.3c.1-.2-.5-.1-.3-.1s1,.3,1.7.6a.5.5,0,0,1,.3-.5c-.1.2.1.3-.2.4a.9.9,0,0,0,.7-.1c-.5-.1.2-.3.3-.4s-.1.2-.2.2.4.4.5.1-.5.5-.9.6h-.2c.2.1.2.3.1.5s.1-.1,0-.1-.3,0-.3.1.3.2.4.3h.3l1.1-.9c.4-.1.6.1,1,.2v-.2c.3,0,.7.1.5.4s-.1-.1-.2-.1h.6c-.7.3,0,.4-.1.9l.7-.2c-.4-.1,0-.2.1-.2s.6,0,.9,0h0a1.4,1.4,0,0,0,.9,0,2.3,2.3,0,0,1,.5-.7c-.5-.1-.2-.2-.2-.3h.1c.1-.1-.1-.1-.1-.2s-1.1.1-1.3.5.3-.2.5-.1-.6.2-1,.2l-.2-.2h-.4c.2-.1,0-.3.5-.4s-.5.1-.7,0l-.2.3c.1-.2-.5-.2-.1-.4l.7-.2-.2-.2h.6V26c.9-.2.2.5,1.2.2a1.2,1.2,0,0,1,1.2-.3c-.4.1,0,.3-.2.4s.6-.1.8-.2.2.3-.2.3.5-.1.6.3,1-1.2,2.5-.8v.2h2.9l1.2.3c-.3.1-1.1.4-.8.6a1.4,1.4,0,0,0-.9-.3h-.7c-.1.1.1.2.1.3l-.6-.2c0,.1.3.2.1.3l-.4-.3c-.5.1-.2.6-.9.5a1.7,1.7,0,0,1,.6-.6c-.3,0,.4-.1.1-.2s-.6,0-1.1.2h-.6c.2.2-.6.2-.6.4s.6,0,1.6.1a1.8,1.8,0,0,0-.8.7h0c-.2.3,0,.4,0,.8s.7,0,1.2-.2-.3-.3-.6-.3h1.6c-.3,0-.3.1-.4.2l.4.2c0-.3,0-.4.1-.4l1.2.2.7.3h.1c-.1-.2.9-.4,1.4-.7s.5.2.7.3a.6.6,0,0,0,.1-1c-1,.3-.6.3-1.2.7l-1.3.3.3-.3c-.6-.1-1.2.2-1.1-.1s.9-.1,1.3-.3h-.4c.8-.3.3.3,1.3.1s.1,0,.6-.2-1.8.1-1.3-.4.7.1,1.1.2a2,2,0,0,0,1.3-.1h-.1a5.6,5.6,0,0,0,2.1-.4,9.7,9.7,0,0,0,1.6-.1h.6c-.6.2-.8,0-1.4,0l-.2.3c-.4-.3-1.2.1-1.9.3.9-.2,2,.1,2.6-.4s.2.2.2.3H51c.2.2-.5.4-1.2.5h0a3,3,0,0,1-1.4.2h.5a4.7,4.7,0,0,0-2.2.3H50l2.7-1.4h3.6c.2.1-.7.3-.6.4l1.5-.2a6.8,6.8,0,0,1-2,.2h.4c-.4-.1-2.1.3-1.8,0s.9-.2,0-.3a2.3,2.3,0,0,0-1.3.3c-.2.1.7.2.2.4a2.9,2.9,0,0,1,1.3-.1c-.5,0-1.5.3-1.4.1s-1.9.8-1.6.9,1.8-.3,1.1-.5a11.7,11.7,0,0,1,2.7-.4h.9l-.9.2,1.9-.3c-1.2.2.1.1.1.2s1.4-.3,1.2-.4-.6.1-1.1.1l1.4-.3h0l.9-.3c1,.1-1.7.7.1.4l.6-.4h1a21.7,21.7,0,0,0-2.5,2.3,3.2,3.2,0,0,0-1.5.5l1.2-1.2c.2-.1.5.1-.1.6s.8-.5.9-.7.1-.3.8-.6l.5-.6c-1,.1-1.9.6-2.4.3l-1.2.3c-.5.4,1.1.1,1.9.1l-.3.3a.1.1,0,0,0-.1-.1c-.6.5-.6.6-.7.8h.2c0,.3-.8.4-1.3.8s-.6.5-.1.3l-1.1.7.6-.2c-.2.3-.7.5-.6.6h.5l1-.8c-.2.3.4-.1,0,.4s-.6.4-1.1.6v.2h0c-.5.3-.1.2-.5.5s1.2-.7,1.3-1.1a2.4,2.4,0,0,1-.6,1.1c-.1.3-.7.6-1.1.9s-1.5.4,0-.8l-.2.2c.8-.3.7-.7.7-.9s-.3-.1-.9.4.4.2-.3.6h-.6l-.7.6h0c-.6.3-.5.6-1.1,1s-1.3,1.4-.2.9c-.7.4-.6.7-1,1.1l.7-.4c-.2.6-.3.4-.2,1.1s-.4.1-.5-.1a11.6,11.6,0,0,0-2.4,2.8h-.6a.7.7,0,0,0-.6.4c-.1.2.3.2-.1.5s.1-.6-.2-.2-.8.5-1,1.1-.5.5-.6.2a1.8,1.8,0,0,0,.7-.9c0,.2.3-.1.1.2s.2-.4.7-.7-.4,0-.4.2.7-.9,0-.9-.1,1.1-.7,1.2.4-.4.3-.8l-.4.2v.4h-.1c-.7.3-.2.8-.6,1.4s.4.4.7.3-.6.6-.8.4-.2-.3.1-1.1-.2-.5-.6-.2.3.1,0,.5h-.1c0,.3-.2.1-.3.5h0c-.4.1-.1.4-.5.5s0,.3,0,.5.7,0,1.1-.4-.2-.3-.1-.5l-.3.3a.4.4,0,0,0,.1-.3l.4-.2c-.3.5,0,.5,0,.8s-.2.3-.5.4-.9.3-1.4.5a.3.3,0,0,0,.1-.2c.2-.4-.3.1-.4,0v.3c.1,0,.1-.1-.1-.1s0,.5-.2.8-.1-.5-.3-.4-.6-.1-.8.3-.1.2-.2.3h-.3c0-.4.5-.3.5-.7l-.2-.2a1.1,1.1,0,0,0,.3-.7c-.3.2-.3.3-.5.7s-.1-.4,0-.4h0c.5-.2.3-.6.7-1s.1,0,.1,0,.7-.5.8-1.1v.2a7.3,7.3,0,0,1,.6-1.4H42c-.1,0,.1-.2.2-.2h0l.3-.8h-.3c0,.1-.4.4-.2.6s-.4.5-.6.5,0,.4.1.5-.3.4-.5.2.3,0,.3-.2-.6.3-.5-.1-.8.9-1,1.5l.3-.2-.7.6.4-.5c-.2-.2-.4.4-.6.3l-.2.8.3-.2a4.9,4.9,0,0,1-1,.8c-.1-.4.5-.5.7-.9s-.4-.1-.2-.4l-.3.3h-.1c0-.4.5-.8.6-1.4v.2a1.9,1.9,0,0,0,.8-.7c-.2,0-.2.1-.2.2s.1-.3.1-.4-.2-.1-.3,0l.4-.5c.2,0,0,.2.2.3s.4,0,.6-.4-.2-.4-.1-.6h-.1q0-.5.3-.3c-.1.2-.3.3-.1.4a.5.5,0,0,0,.2-.4V39l.5-.5c-.1-.2-.1-.5-.2-.7s.3-.3.3-.4h0a1.7,1.7,0,0,0,.7-.8c.2-.1-.4,1.7.5.5s0-.6.1-.9h0c.2-.1.1-.3.2-.5s-.3.2-.3.3.4-.3.4-.6.4-.2.4,0a.8.8,0,0,0,.5-.5c.1-.1,0-.2,0-.3s.1-.2.4-.2a.1.1,0,0,0-.1.1c.1.2.3-.1.3.1s-.1-.1-.1,0,0,.2.1.2h.4l.6-.2h-.2a4.7,4.7,0,0,0,1-1c-.5,0-.4-.2-.3-.3s.2-.4-.1-.4l1.2-.2s.4.1.2.2l-.7.2c-.2.3.6-.1.9-.1s-.2-.5-.3-.6h.1a.1.1,0,0,0-.1-.1c-.2.2-1,.4-.6.2h0c.4-.2.2-.3.4-.4h-.5l1.9-.8h0l-1.8.6c.3-.2-.1-.3.6-.5s-2.3,1.2-1.7.6l.4-.2c-.6.1-1.5.4-1.4.2s.1-.6.4-1.3-.3.2-.4.3h-.2c.1.1-.5.7,0,.4s-.8.8-1.1.7v-.2h.2c.1-.2.2-.2.3-.3s.4-.6-.2-.6l-.3.2c.1,0,.2-.2,0-.2v.2c-.2-.4.4-.3.3-.6s1-.3,1-.7-.7.7-1.2.5h-.1c-.2.1-.2.3-.3.5s-.1-.2-.3-.2a7.6,7.6,0,0,0-1.1.8c.6-.2.8-.1,1,0s.4.1.7,0-.5.2-.7.5V32a2,2,0,0,1-1.1.1h.3c-.6.2-1-.4-1.5,0s.3.1.4,0h-1l-.7.4c0-.1-.5-.1-.3-.4s-.7.2-1,.3.5-.1.5-.5a3.3,3.3,0,0,0-1.8.2l.2.2H36v.2c-.3-.1-.2-.2,0-.3s-.5.3-.8,0,1,0,1.2-.1-.9-.6-2-.3.1-.3-.1-.3-.1.4-.3.6.6,0,.8.2h-.4v.2c0-.3-.3-.5-.7-.4s.3.2.4.6-.5-.3-1,0,.4-.2.1-.2-.3.2-.5.3.2-.5.4-.8h.8l-.5-.2c.5-.1.4-.3.4-.4s-.6.4-1.1.3.5,0,.1.2-.1.2-.6.3h.1c-.2-.2-.4,0-.6,0s.3,1-.6,1v-.2l.8-2.2a14.2,14.2,0,0,1-2.8-.2c-.3-.4.7-.3.6-.5h.5c0,.1-1,0-.6.3s1.2.1,2-.3-1,.1-1.5-.2h.5L29,29.4h.5c-.4,0-.8.2-.8.6h-.5Zm5-15.5v0Zm4.2,14.4H35.6c1.1.6,1.8,1.1,0,1.1h.9A8.1,8.1,0,0,0,37.8,29c-.1-.1-.2.1-.4,0Zm.5,1.1c.3.1.3-.1.3-.2h-.4Zm.3-.3h0Zm-6.9-.2Zm.7.3v-.2h-.3C31.9,29.9,31.9,30,32,30Zm2.3.8c.2-.3.7-.3.7-.6l-.2-.2h-.4a.1.1,0,0,1-.1.1c.1.1.2.1.2.3s-.3.3-.7.2S34.2,30.9,34.3,30.8Zm9.5,7.6h-.2v-.3c.4-.4,1.1-.3,1.1-.9s.4,0,.6,0l-.2.2C44.6,38.7,44.2,37.4,43.8,38.4Zm4.7-3.9c-.1.1,0,.1,0,.1a2.8,2.8,0,0,1,.8-1.9l-1.4.7h.2l-.2-.2c-.4.1-.5.3-.8.4s.2.3.3.4l.6-.3a2,2,0,0,0-.6.7c.2,0,.8-.3.4-.3s-.1.3.5.1a2.4,2.4,0,0,1-1.1.9h-.4c-.3.1.3.3-.2.5s-.4-.1-.2-.4-.4-.1-.5.1-.5.1-.3.5-.2-.3-.4-.1.1.5.3.7,0-.5.2-.7v.7H46c-.1.1-.1.2-.1.4v.2c.3-.3.6-.6.8-.5h0c.3-.1.4-.3.4-.4s.3-.7.5-.7v.2ZM44.6,29c.2.6.2,1.1,1.4,1h-.1c.2.2.5.1,1,0s.9-.2,1,0l-1.5.6h.5c-.4.3.1.1.3.1l-.7.4c0-.1-.3-.1-.3-.1s0-.4-.5-.3.6.1-.1.5.1.1.5,0l-.8.5h.4c-.1,0-.7.1-.8.4s.3.1.7-.2h-.1c.1,0,.6-.4.7-.2s.3-.3.1-.2l-.6.2c.2-.2.1.1.5-.3s-.7.2-.1-.2h.2l.9-.4c.3-.1,0,.2.6-.1s.7-.4.9-.3.4.3.9.3l.6-.2c.3-.2-.6,0,0-.2h.4c.1.1.5-.1.7-.1a4.2,4.2,0,0,0-1.2.4s-.2.1.1.1-.2,0-.2.1h.4l.7-.2a3.4,3.4,0,0,0,1.1-.5c0-.1,0-.1.3-.2h.3l-.6.8a.5.5,0,0,0-.5.1c-.5.3-.5.2-.8.5s.1.2.3.3-.5.3-.3,0-.6.5-.8.6,0,.1,0,.2.6-.2.6,0h0c.5-.4,1.7-1.2,1.4-1.3h.2c.5-.3.5-.5.5-.7l.8-.6.8-.3c0-.1-.1-.1-.1-.2h-.5l-2.2.6-.6.2h-.3c-.1-.1,0-.2-.1-.3h.8c.5-.2.8-.4.7-.6h.4l-.9.2a2.6,2.6,0,0,1-1.2-.1,3.8,3.8,0,0,0-1.8.1c1.1-.3-.4-.3.7-.4s-.9.3-1.5.3.3,0,.7-.2a3.5,3.5,0,0,0-1.7.2l-1.5.2v-.3Zm-2,.3h-.5l-.5.2c.3.1.5.4.1.5s-.1-.2.1-.3-1-.2-.8.1.1.5.6.2-.5.2-.7.3-.1-.5-.5-.6h-.8c.1.2-.1.4.3.4h-.7c.1,0,.3,0,.3-.1l-.5-.3h-.2l-.3.2c.4-.1.2.1.2.2s-.2,0-.4,0l.3.3c-.1.1-.5-.2-.4.1a3.2,3.2,0,0,0,1.4-.1l-.2-.2c.6-.1.4.4,1.1.4s1,0,1.1-.4.4.3.6.1,1.1-.4.9-.5-.5.2-.7-.1h.4l-.3-.2C42.7,29.8,42.7,29.6,42.6,29.3Zm-9.5-2.2Z" transform="translate(-9.1 -5.7)"/>
    <path class="fill" d="M39.9,43.4c0,.2-.3.4-.1.5S40.2,43.5,39.9,43.4Z" transform="translate(-9.1 -5.7)"/>
    <path class="fill" d="M39.5,43.6a.1.1,0,0,1,0,.2l.2-.3Z" transform="translate(-9.1 -5.7)"/>
    <path class="fill" d="M38.2,42.8a.9.9,0,0,1-.3.6c-.4-.3.3-.5,0-.9s-.2.8-.5,1.2S38.5,43.1,38.2,42.8Z" transform="translate(-9.1 -5.7)"/>
    <polygon class="fill" points="28.8 36.5 28.6 36.8 28.7 36.8 28.8 36.5 28.8 36.5"/>
    <path class="fill" d="M45.8,40.6c.1.1.2-.1.2-.2A.2.2,0,0,0,45.8,40.6Z" transform="translate(-9.1 -5.7)"/>
    <path class="fill" d="M30.7,22l1.5-1.8Z" transform="translate(-9.1 -5.7)"/>
    <path class="fill" d="M52.2,32.8c-.4.6-.3.9-1,1.6a2.2,2.2,0,0,0,1-1c.1-.3.1-.5.8-1Z" transform="translate(-9.1 -5.7)"/>
    <path class="fill" d="M53.9,32.8c-.6.2.1-.5-.4-.3s.2.1-.3.6Z" transform="translate(-9.1 -5.7)"/>
    <polygon class="fill" points="35.9 28.9 35.8 28.8 35.8 28.8 35.9 28.9"/>
    <polygon class="fill" points="47.8 23.8 47.9 23.8 48.4 23.3 47.8 23.8"/>
    <path class="fill" d="M57.1,29.5h0Z" transform="translate(-9.1 -5.7)"/>
    <polygon class="fill" points="35.3 28.6 35.1 28.7 35.2 28.7 35.3 28.6"/>
    <path class="fill" d="M47.5,33.5h.1S47.9,33.4,47.5,33.5Z" transform="translate(-9.1 -5.7)"/>
    <polygon class="fill" points="50.4 21.3 50.5 21.2 50.1 21.3 50 21.3 50.4 21.2 50.3 21.4 50.4 21.3"/>
    <path class="fill" d="M47,32.8h0Z" transform="translate(-9.1 -5.7)"/>
    <path class="fill" d="M51.5,30h0Z" transform="translate(-9.1 -5.7)"/>
    <path class="fill" d="M51.5,30c.1,0,0,.1.2,0S51.7,30,51.5,30Z" transform="translate(-9.1 -5.7)"/>
    <path class="fill" d="M49.9,30.1h0Z" transform="translate(-9.1 -5.7)"/>
    <path class="fill" d="M46.5,26.1c.8.1,1,.1.8.3s.9-.2,1.4-.3A16.1,16.1,0,0,0,46.5,26.1Z" transform="translate(-9.1 -5.7)"/>
    <path class="fill" d="M48.7,26.1h0Z" transform="translate(-9.1 -5.7)"/>
    <polygon class="fill" points="37.8 26.4 37.1 26.6 37.2 26.6 37.8 26.4"/>
    <path class="fill" d="M45.3,26h.5C45.9,25.9,45.1,26,45.3,26Z" transform="translate(-9.1 -5.7)"/>
    <path class="fill" d="M45.9,29.6h.4C46.2,29.7,46.3,29.3,45.9,29.6Z" transform="translate(-9.1 -5.7)"/>
    <path class="fill" d="M42.8,26.8c.1,0,.3.1.2.3S43.6,26.6,42.8,26.8Z" transform="translate(-9.1 -5.7)"/>
    <polygon class="fill" points="36 23.9 36 23.9 36.4 23.8 36 23.9"/>
    <path class="fill" d="M44.1,32.3c.3-.3.1-.6.6-.8s-.2.4-.5.3S44.2,32.2,44.1,32.3Z" transform="translate(-9.1 -5.7)"/>
    <path class="fill" d="M44.2,31.8h0Z" transform="translate(-9.1 -5.7)"/>
    <path class="fill" d="M40.7,30.4h0Z" transform="translate(-9.1 -5.7)"/>
    <path class="fill" d="M43.2,32l.4-.3c-.3.2-.7.2-.7.5s.3,0,.4-.2Z" transform="translate(-9.1 -5.7)"/>
    <path class="fill" d="M37.8,26.1h0C37.9,26,37.7,26.2,37.8,26.1Z" transform="translate(-9.1 -5.7)"/>
    <path class="fill" d="M37.7,25.9h0Z" transform="translate(-9.1 -5.7)"/>
    <path class="fill" d="M41.7,30.3h.5C42.1,30.2,41.7,30.1,41.7,30.3Z" transform="translate(-9.1 -5.7)"/>
    <polygon class="fill" points="27.1 20.9 27.5 20.8 27.1 20.8 27.1 20.9"/>
    <polygon class="fill" points="25.4 20.3 25.3 20.3 25 20.4 25.1 20.4 25.4 20.3"/>
    <path class="fill" d="M36.8,32.4c.2.1.4-.2.4-.3h-.5c.1.3.1,0,.4.1Z" transform="translate(-9.1 -5.7)"/>
    <path class="fill" d="M27.2,26.5c.3-.2.2-.1,0,.1l-.5.2.8-.4a3.3,3.3,0,0,1-1.3.7c.1.1.6-.2.8-.2l.2-.2c.4-.3.3-.2.4-.2s.3-.3.4-.4h.3l.2-.2L28,26h-.1l.4-.2-.4.2h-.3l.2-.3-.4.2-.7.2c-.2,0-.1-.1.1-.1l-.9.2c-.6.3.8-.1.5.1s-.7.1-.7.2h-.1c.3,0-1,.5,0,.2L25,27c.3-.1.3,0,.3,0h.1l.8-.2-.7.4c-.2.1.5-.3.5-.2l-.6.3,1.3-.5Z" transform="translate(-9.1 -5.7)"/>
    <path class="fill" d="M27,26.9Z" transform="translate(-9.1 -5.7)"/>
    <path class="fill" d="M27.8,25.8Z" transform="translate(-9.1 -5.7)"/>
    <path class="fill" d="M28,26.3l.3-.3h-.1l-.3.3Z" transform="translate(-9.1 -5.7)"/>
    <path class="fill" d="M28.4,25.8l-.2.2h0Z" transform="translate(-9.1 -5.7)"/>
    <polygon class="fill" points="13.6 25.5 13.4 25.6 13 25.6 13.6 25.5"/>
    <path class="fill" d="M20.5,30.8c0,.2.6,0,.7,0S21.1,30.7,20.5,30.8Z" transform="translate(-9.1 -5.7)"/>
    <polygon class="fill" points="9.5 26.8 8.8 26.8 8.8 26.9 9.5 26.8"/>
    <path class="fill" d="M26.7,25.4Z" transform="translate(-9.1 -5.7)"/>
    <path class="fill" d="M26.4,26.1c.7-.3.4,0,1.1-.2h-.6l.8-.2h0c.1-.1.1-.3.2-.4l-.5-.3c-.1.1-.6.3-.2.4H27l.3.2h.2c.3.2.1.2-.2.3s-.6-.1-.2-.2-.4,0-.4-.1S26.1,25.9,26.4,26.1Z" transform="translate(-9.1 -5.7)"/>
    <path class="fill" d="M30.3,21.9h0Z" transform="translate(-9.1 -5.7)"/>
    <path class="fill" d="M30.1,22.1v.6l.5-.5v-.3c0,.1-.1.4-.3.4Z" transform="translate(-9.1 -5.7)"/>
    <path class="fill" d="M29.7,23.3c.2-.4,0-.6-.2-.5s.3.1.3-.3-.4.2-.4.3Z" transform="translate(-9.1 -5.7)"/>
    <polygon class="fill" points="18.6 19.3 18.6 19.2 18.5 19.2 18.6 19.3"/>
    <path class="fill" d="M27.7,24.9h.1l-.2-.2A.3.3,0,0,0,27.7,24.9Z" transform="translate(-9.1 -5.7)"/>
    <path class="fill" d="M28.4,24.4l.3-.2Z" transform="translate(-9.1 -5.7)"/>
    <path class="fill" d="M28.1,24.6h0l.3-.2Z" transform="translate(-9.1 -5.7)"/>
    <path class="fill" d="M27.8,24.9c.2.1.4.2.6-.1l-.3-.2Z" transform="translate(-9.1 -5.7)"/>
    <polygon class="fill" points="6.1 26.4 5.3 26.6 5.3 26.6 6.1 26.5 6.1 26.4"/>
    <path class="fill" d="M13.7,31.6h0C13.6,31.6,13.6,31.6,13.7,31.6Z" transform="translate(-9.1 -5.7)"/>
    <path class="fill" d="M12.2,31.2c.9-.6-.1.4,1-.5s.6,0,0,.4.1-.2-.5.1-.2.3.5,0,.3.2.5.3,1.8-1.6,1.6-1.9-1.4.3-2.3.5S11.5,31.4,12.2,31.2Z" transform="translate(-9.1 -5.7)"/>
    <path class="fill" d="M10.3,32.3c-.3.3-.3.3-.3.4S10.2,32.5,10.3,32.3Z" transform="translate(-9.1 -5.7)"/>
    <path class="fill" d="M21.4,26.3c-.1,0,0-.2-.2-.1l-.3.3Z" transform="translate(-9.1 -5.7)"/>
    <path class="fill" d="M20.8,26.7v-.2C20.9,26.6,20.9,26.6,20.8,26.7Z" transform="translate(-9.1 -5.7)"/>
    <path class="fill" d="M21.5,26.3h0Z" transform="translate(-9.1 -5.7)"/>
    <path class="fill" d="M29.2,23.7c.1.1.2-.1.2-.2S29.3,23.6,29.2,23.7Z" transform="translate(-9.1 -5.7)"/>
    <path class="fill" d="M34.3,17.9h0Z" transform="translate(-9.1 -5.7)"/>
    <path class="fill" d="M33.8,13.4h0Z" transform="translate(-9.1 -5.7)"/>
    <path class="fill" d="M33.7,13.3c.1-.1.4-.3.4-.5h.1v-.2C34.1,12.8,33.7,13.1,33.7,13.3Z" transform="translate(-9.1 -5.7)"/>
  </g>
  <g class="steve-chab">
    <polyline class="no-fill s1 s" points="26.5 7.1 9.5 24.1 43.5 24.1 26.5 41.1"/>
  </g>
</svg>
