<?xml version="1.0" encoding="UTF-8"?>
<svg class="steve-chab-band-logo" xmlns="http://www.w3.org/2000/svg" width="194.69" height="23.48" viewBox="0 0 194.69 23.48">
  <g>
    <path d="M8.71,8.45l.29,4.83h-.51c-.63-1.42-1.29-2.39-1.95-2.9s-1.33-.77-1.99-.76c-.41,0-.77,.15-1.05,.43-.29,.28-.43,.6-.43,.97,0,.27,.11,.53,.31,.78,.33,.41,1.24,1.11,2.74,2.09,1.5,.98,2.48,1.82,2.96,2.52,.48,.7,.72,1.48,.74,2.34,.01,.79-.18,1.56-.56,2.33-.38,.76-.93,1.35-1.64,1.76-.71,.41-1.5,.62-2.37,.64-.68,0-1.58-.19-2.72-.6-.3-.11-.51-.16-.62-.16-.33,0-.61,.26-.82,.77H.58l-.31-5.08H.79c.47,1.32,1.11,2.31,1.91,2.96,.8,.66,1.55,.98,2.26,.97,.48,0,.88-.16,1.18-.46,.3-.3,.45-.67,.45-1.09,0-.48-.16-.9-.47-1.25-.31-.35-.99-.88-2.05-1.58-1.56-1.05-2.57-1.85-3.03-2.41C.36,14.73,.01,13.82,0,12.82c-.01-1.09,.35-2.08,1.09-2.97,.74-.89,1.82-1.35,3.24-1.37,.77-.01,1.51,.17,2.23,.53,.27,.15,.5,.22,.67,.22,.18,0,.33-.04,.44-.12,.11-.08,.28-.29,.52-.65h.51Z"/>
    <path d="M16.6,3.56l.07,5.18,3.36-.04,.02,1.5-3.36,.04,.12,8.73c.01,.82,.06,1.34,.13,1.58,.08,.24,.22,.43,.41,.57,.19,.14,.37,.21,.53,.21,.66,0,1.27-.52,1.84-1.52l.46,.33c-.79,1.95-2.11,2.94-3.94,2.96-.9,.01-1.66-.23-2.29-.72-.63-.49-1.03-1.04-1.21-1.66-.11-.34-.17-1.27-.19-2.78l-.1-7.64-1.85,.02v-.53c1.25-.92,2.32-1.87,3.2-2.88,.88-1,1.64-2.12,2.29-3.35h.5Z"/>
    <path d="M32.68,15.09l-7.76,.1c.12,1.88,.63,3.35,1.56,4.43,.71,.83,1.55,1.24,2.53,1.22,.61,0,1.15-.18,1.64-.53,.49-.34,1.01-.96,1.56-1.85l.52,.33c-.75,1.58-1.58,2.69-2.5,3.36-.92,.66-1.99,1-3.21,1.02-2.1,.03-3.7-.76-4.8-2.36-.89-1.29-1.34-2.9-1.37-4.83-.03-2.36,.58-4.25,1.84-5.66s2.74-2.13,4.46-2.16c1.43-.02,2.68,.55,3.75,1.71s1.66,2.9,1.77,5.21Zm-3.74-.96c-.02-1.62-.12-2.74-.31-3.34-.18-.6-.46-1.06-.84-1.37-.21-.18-.5-.27-.85-.26-.52,0-.95,.27-1.28,.79-.58,.91-.87,2.14-.84,3.71v.53l4.12-.06Z"/>
    <path d="M40.17,23l-4.92-10.91c-.59-1.31-1.05-2.15-1.38-2.49-.24-.26-.58-.43-1.04-.52v-.56l7.51-.1v.56c-.47,0-.79,.1-.96,.27-.24,.23-.36,.49-.35,.79,0,.37,.24,1.07,.69,2.09l2.4,5.28,1.8-4.61c.52-1.32,.77-2.25,.76-2.8,0-.31-.12-.57-.35-.76-.23-.19-.63-.3-1.21-.31v-.56l4.62-.06v.56c-.44,.07-.8,.24-1.08,.51-.28,.28-.69,1.08-1.24,2.42l-4.57,11.17h-.71Z"/>
    <path d="M59.14,14.73l-7.76,.1c.12,1.88,.63,3.35,1.56,4.43,.71,.83,1.55,1.24,2.53,1.22,.6,0,1.15-.18,1.64-.53,.49-.34,1.01-.96,1.56-1.85l.52,.33c-.75,1.57-1.58,2.69-2.5,3.36-.92,.66-1.99,1-3.21,1.02-2.1,.03-3.7-.76-4.8-2.36-.89-1.29-1.34-2.9-1.37-4.83-.03-2.36,.58-4.25,1.84-5.66,1.26-1.41,2.74-2.13,4.46-2.16,1.43-.02,2.68,.55,3.75,1.71,1.07,1.16,1.66,2.9,1.77,5.21Zm-3.74-.96c-.02-1.62-.12-2.74-.31-3.34-.18-.6-.47-1.06-.84-1.37-.21-.18-.5-.27-.85-.26-.52,0-.95,.27-1.28,.79-.58,.91-.87,2.14-.84,3.71v.53l4.12-.06Z"/>
  </g>
  <g>
    <path d="M78.72,18.41l.47,.36c-.65,1.26-1.47,2.2-2.45,2.83s-2.04,.94-3.16,.96c-1.89,.03-3.4-.67-4.55-2.07-1.15-1.41-1.74-3.11-1.76-5.11-.03-1.93,.47-3.63,1.48-5.11,1.22-1.78,2.92-2.69,5.1-2.72,1.46-.02,2.63,.33,3.5,1.06,.87,.72,1.32,1.54,1.33,2.45,0,.57-.16,1.04-.5,1.38-.34,.35-.8,.53-1.36,.53-.6,0-1.09-.18-1.48-.57-.39-.39-.64-1.09-.75-2.09-.07-.64-.22-1.08-.46-1.33-.24-.25-.51-.37-.82-.37-.48,0-.89,.27-1.23,.79-.51,.78-.76,1.98-.74,3.58,.02,1.33,.25,2.6,.69,3.81,.44,1.21,1.03,2.11,1.78,2.69,.56,.43,1.22,.63,1.98,.62,.49,0,.96-.13,1.4-.37,.44-.24,.96-.68,1.56-1.34Z"/>
    <path d="M85.71,1.43l.11,8.19c.77-.83,1.47-1.42,2.11-1.76s1.31-.52,2.01-.53c.89-.01,1.65,.23,2.29,.72,.64,.5,1.06,1.08,1.28,1.76,.22,.68,.33,1.83,.36,3.44l.07,5.52c.01,1.08,.12,1.75,.33,2.02,.21,.27,.62,.43,1.23,.49v.54l-7.17,.1v-.54c.5-.08,.87-.28,1.12-.62,.18-.27,.26-.91,.25-1.93l-.08-6.31c-.02-1.17-.07-1.9-.17-2.2s-.25-.53-.47-.69c-.22-.16-.46-.24-.74-.24-.4,0-.8,.15-1.17,.43-.38,.28-.79,.78-1.22,1.48l.1,7.58c.01,1.01,.1,1.64,.25,1.89,.2,.34,.59,.55,1.19,.62v.54l-7.17,.1v-.54c.59-.07,1.01-.27,1.26-.59,.17-.22,.25-.88,.23-1.96l-.19-14.38c-.01-1.07-.12-1.73-.32-1.99s-.61-.43-1.24-.5v-.56l5.76-.08Z"/>
    <path d="M104.45,19.62c-1.71,1.55-3.24,2.33-4.62,2.35-.81,.01-1.48-.25-2.02-.77-.54-.52-.82-1.18-.83-1.98-.01-1.08,.44-2.06,1.35-2.93,.92-.88,2.92-2.05,6.02-3.52l-.02-1.42c-.01-1.07-.08-1.74-.2-2.02-.12-.28-.34-.51-.67-.72-.33-.2-.69-.3-1.09-.29-.66,0-1.19,.16-1.61,.46-.26,.18-.39,.4-.38,.64,0,.21,.15,.47,.43,.78,.39,.43,.59,.84,.59,1.25,0,.49-.17,.92-.54,1.27-.36,.35-.84,.53-1.44,.54-.64,0-1.17-.18-1.6-.55-.43-.38-.65-.82-.66-1.34,0-.73,.27-1.42,.83-2.09s1.36-1.19,2.39-1.55,2.09-.56,3.2-.57c1.34-.02,2.41,.25,3.2,.81,.79,.56,1.31,1.17,1.55,1.83,.15,.42,.23,1.39,.25,2.92l.07,5.49c0,.65,.04,1.05,.09,1.22,.05,.17,.13,.29,.23,.37,.1,.08,.22,.12,.35,.12,.26,0,.53-.19,.79-.57l.46,.36c-.49,.75-1.01,1.3-1.54,1.65-.54,.35-1.15,.52-1.83,.53-.81,.01-1.44-.17-1.9-.54s-.75-.94-.86-1.71Zm-.01-1.1l-.06-4.74c-1.21,.73-2.11,1.51-2.69,2.34-.39,.55-.58,1.1-.57,1.66,0,.46,.18,.87,.52,1.22,.26,.27,.61,.4,1.07,.39,.5,0,1.09-.3,1.74-.87Z"/>
    <path d="M116.28,1.02l.1,7.79c1.17-1.25,2.47-1.88,3.88-1.9,.97-.01,1.89,.26,2.75,.82,.87,.56,1.55,1.36,2.05,2.4,.5,1.04,.76,2.25,.78,3.62,.02,1.54-.27,2.95-.87,4.22-.6,1.27-1.41,2.24-2.43,2.92-1.02,.67-2.19,1.02-3.51,1.04-.77,0-1.45-.1-2.05-.34-.6-.23-1.19-.62-1.77-1.16l-2.33,1.56h-.51l-.24-17.99c-.01-.82-.05-1.32-.13-1.51-.1-.28-.27-.49-.49-.62-.22-.13-.58-.21-1.1-.22v-.56l5.87-.08Zm.12,9.14l.08,6.3c.02,1.28,.06,2.1,.12,2.45,.11,.59,.36,1.07,.75,1.44,.39,.36,.88,.54,1.47,.53,.51,0,.95-.16,1.32-.46,.36-.3,.66-.88,.9-1.75,.24-.87,.34-2.44,.31-4.7-.03-2.17-.32-3.65-.88-4.45-.4-.58-.94-.87-1.6-.86-.87,.01-1.69,.51-2.48,1.5Z"/>
  </g>
  <g>
    <path d="M138.63,.72l.1,7.79c1.17-1.25,2.47-1.88,3.88-1.9,.97-.01,1.89,.26,2.75,.82,.87,.56,1.55,1.36,2.05,2.4,.5,1.04,.76,2.25,.78,3.62,.02,1.54-.27,2.95-.87,4.22-.6,1.27-1.41,2.24-2.43,2.92-1.02,.67-2.19,1.02-3.51,1.04-.77,.01-1.45-.1-2.05-.34-.6-.23-1.19-.62-1.77-1.16l-2.32,1.56h-.51l-.24-17.99c-.01-.82-.05-1.32-.13-1.51-.1-.28-.27-.49-.49-.62-.22-.13-.58-.21-1.1-.22V.8l5.86-.08Zm.12,9.14l.08,6.3c.02,1.28,.06,2.1,.12,2.45,.11,.59,.36,1.07,.75,1.44,.39,.36,.88,.54,1.47,.53,.51,0,.95-.16,1.32-.46,.36-.3,.66-.88,.9-1.75,.24-.87,.34-2.44,.31-4.7-.03-2.17-.32-3.65-.88-4.45-.4-.58-.94-.87-1.6-.86-.87,.01-1.69,.51-2.48,1.5Z"/>
    <path d="M157.07,18.92c-1.71,1.55-3.24,2.33-4.62,2.35-.81,.01-1.48-.25-2.02-.77-.54-.52-.82-1.18-.83-1.98-.01-1.08,.44-2.06,1.35-2.93,.92-.88,2.92-2.05,6.02-3.52l-.02-1.42c-.01-1.07-.08-1.74-.2-2.02-.12-.28-.34-.51-.67-.72-.33-.2-.69-.3-1.09-.29-.66,0-1.19,.16-1.61,.46-.26,.18-.39,.4-.38,.64,0,.21,.15,.47,.43,.78,.39,.43,.59,.84,.59,1.25,0,.5-.17,.92-.53,1.27-.37,.35-.84,.53-1.44,.54-.63,0-1.17-.18-1.6-.55-.43-.38-.66-.82-.66-1.34,0-.73,.27-1.42,.84-2.09s1.36-1.19,2.39-1.55,2.09-.56,3.2-.57c1.34-.02,2.41,.25,3.2,.81,.79,.56,1.31,1.17,1.55,1.83,.15,.42,.23,1.39,.25,2.92l.07,5.49c0,.65,.04,1.05,.09,1.22,.05,.17,.13,.29,.23,.37,.1,.08,.22,.12,.35,.12,.26,0,.53-.19,.79-.57l.46,.36c-.49,.75-1.01,1.3-1.54,1.65-.54,.35-1.15,.52-1.83,.53-.81,.01-1.44-.17-1.9-.54s-.74-.94-.86-1.71Zm-.01-1.1l-.06-4.74c-1.21,.73-2.11,1.51-2.69,2.34-.39,.55-.58,1.1-.57,1.66,0,.46,.18,.87,.52,1.22,.26,.27,.61,.4,1.07,.39,.5,0,1.08-.3,1.74-.87Z"/>
    <path d="M169.26,6.69l.02,1.83c.72-.8,1.41-1.38,2.07-1.75s1.37-.56,2.14-.57c.92-.01,1.68,.23,2.3,.73,.61,.5,1.02,1.13,1.24,1.88,.17,.57,.26,1.68,.29,3.31l.07,5.51c.01,1.09,.12,1.77,.32,2.03s.61,.43,1.24,.49v.54l-7.15,.1v-.54c.53-.08,.91-.31,1.13-.68,.16-.25,.23-.88,.22-1.88l-.08-6.3c-.02-1.16-.07-1.89-.17-2.19-.1-.3-.25-.53-.47-.7-.22-.16-.46-.24-.72-.24-.87,.01-1.67,.64-2.4,1.89l.1,7.58c.01,1.06,.12,1.73,.32,2.01,.2,.28,.57,.45,1.1,.51v.54l-7.15,.1v-.54c.59-.07,1.01-.27,1.26-.59,.17-.22,.25-.88,.23-1.97l-.11-7.99c-.01-1.07-.12-1.73-.32-1.99-.2-.26-.61-.42-1.24-.5v-.56l5.76-.08Z"/>
    <path d="M192.69,0l.22,16.29c.01,1.1,.05,1.75,.12,1.95,.08,.33,.24,.58,.47,.74,.23,.16,.63,.25,1.19,.29v.5l-5.96,1.25-.03-2.24c-.7,.88-1.33,1.48-1.89,1.8-.55,.32-1.19,.48-1.89,.49-1.81,.02-3.25-.76-4.32-2.36-.87-1.3-1.31-2.9-1.34-4.81-.02-1.52,.22-2.89,.73-4.1s1.22-2.13,2.12-2.76c.91-.63,1.88-.95,2.93-.96,.68,0,1.28,.11,1.81,.37,.53,.26,1.09,.71,1.7,1.36l-.06-4.27c-.01-1.08-.07-1.73-.16-1.95-.12-.29-.31-.5-.55-.64-.24-.14-.7-.2-1.37-.19V.08l6.27-.08Zm-4.11,9.65c-.77-1.42-1.69-2.13-2.77-2.11-.37,0-.68,.11-.92,.32-.37,.32-.67,.87-.89,1.66-.23,.79-.33,2-.31,3.62,.02,1.79,.17,3.11,.45,3.96,.27,.85,.64,1.47,1.1,1.85,.23,.19,.55,.28,.96,.27,.89-.01,1.72-.72,2.48-2.12l-.1-7.45Z"/>
  </g>
</svg>