<?xml version="1.0" encoding="UTF-8"?>
<svg class="steve-chab-band-logo-bug" xmlns="http://www.w3.org/2000/svg" width="48.52" height="48.52" viewBox="0 0 48.52 48.52">
  <path d="M24.26,0C10.86,0,0,10.86,0,24.26s10.86,24.26,24.26,24.26,24.26-10.86,24.26-24.26S37.66,0,24.26,0ZM15.08,30.39c-.39,.76-.95,1.34-1.67,1.74-.72,.4-1.51,.61-2.38,.61-.68,0-1.58-.21-2.71-.64-.3-.11-.51-.17-.62-.17-.33,0-.61,.25-.83,.76h-.5l-.24-5.09h.51c.45,1.33,1.08,2.33,1.87,3,.79,.67,1.54,1,2.25,1,.48,0,.88-.15,1.19-.45,.31-.3,.46-.66,.46-1.08,0-.48-.15-.9-.45-1.26-.3-.35-.98-.89-2.03-1.61-1.54-1.07-2.54-1.89-3-2.45-.67-.83-1-1.74-1-2.74,0-1.09,.38-2.08,1.13-2.96,.75-.88,1.84-1.32,3.26-1.32,.77,0,1.51,.19,2.22,.56,.27,.15,.49,.23,.67,.23,.18,0,.33-.04,.44-.11,.11-.08,.29-.29,.53-.64h.51l.23,4.83h-.51c-.62-1.43-1.25-2.41-1.92-2.94s-1.32-.79-1.98-.79c-.41,0-.77,.14-1.06,.42-.29,.28-.44,.6-.44,.96,0,.27,.1,.54,.3,.79,.32,.41,1.23,1.12,2.71,2.13,1.48,1,2.46,1.86,2.93,2.56,.47,.7,.7,1.49,.7,2.35,0,.79-.2,1.56-.59,2.32Zm11.49,1.43c-.99,.61-2.05,.92-3.17,.92-1.89,0-3.4-.71-4.53-2.13-1.13-1.42-1.7-3.13-1.7-5.13s.51-3.62,1.54-5.09c1.24-1.77,2.95-2.65,5.13-2.65,1.46,0,2.63,.37,3.49,1.1,.86,.74,1.29,1.56,1.29,2.47,0,.57-.17,1.03-.52,1.38-.35,.34-.8,.51-1.37,.51-.6,0-1.09-.2-1.48-.59-.39-.39-.63-1.09-.72-2.1-.06-.64-.21-1.08-.44-1.33s-.5-.38-.82-.38c-.48,0-.9,.26-1.24,.77-.52,.78-.79,1.97-.79,3.57,0,1.33,.21,2.61,.64,3.82s1,2.12,1.74,2.72c.55,.43,1.21,.65,1.97,.65,.49,0,.96-.12,1.41-.35s.97-.67,1.57-1.32l.47,.36c-.67,1.25-1.5,2.18-2.49,2.79Zm14.62-.08c-1.03,.66-2.21,.99-3.53,.99-.77,0-1.45-.12-2.04-.36s-1.18-.64-1.76-1.18l-2.35,1.53h-.51V14.72c0-.82-.04-1.32-.11-1.51-.1-.28-.26-.49-.48-.63-.22-.14-.58-.21-1.1-.23v-.56h5.87v7.79c1.19-1.23,2.49-1.85,3.91-1.85,.97,0,1.88,.29,2.74,.85,.86,.57,1.53,1.38,2.01,2.43s.73,2.26,.73,3.63c0,1.54-.31,2.95-.92,4.21-.62,1.26-1.44,2.22-2.47,2.88Z"/>
  <path d="M37.7,19.46c-.87,0-1.7,.49-2.5,1.47v6.3c0,1.28,.03,2.1,.09,2.45,.1,.6,.34,1.08,.73,1.45,.38,.37,.87,.55,1.47,.55,.51,0,.96-.15,1.32-.44,.37-.29,.68-.87,.92-1.74,.25-.87,.37-2.43,.37-4.69s-.27-3.66-.82-4.46c-.39-.59-.92-.88-1.59-.88Z"/>
</svg>